<svg width="20" height="21" viewBox="0 0 20 21" fill="none" xmlns="http://www.w3.org/2000/svg">
<path d="M3.33366 3.83331L16.667 17.1666M11.667 12.3634C11.2247 12.7593 10.6406 13 10.0003 13C8.61961 13 7.50033 11.8807 7.50033 10.5C7.50033 9.85968 7.74104 9.27561 8.1369 8.83331M16.3401 13.5064C16.8163 13.0919 17.2422 12.6749 17.6089 12.2891C18.5752 11.2723 18.5752 9.72762 17.6089 8.7109C15.9791 6.99609 13.1799 4.66665 10.0003 4.66665C9.25751 4.66665 8.53547 4.79378 7.84424 5.01051M5.41699 6.16947C4.20152 6.94534 3.16502 7.8973 2.39175 8.71089C1.42541 9.72762 1.42541 11.2723 2.39175 12.2891C4.02157 14.0039 6.82073 16.3333 10.0003 16.3333C11.5571 16.3333 13.0226 15.7749 14.3044 15.0037" stroke="#595959" stroke-width="1.5" stroke-linecap="round"/>
</svg>
