<svg width="494" height="461" viewBox="0 0 494 461" fill="none" xmlns="http://www.w3.org/2000/svg">
<g style="mix-blend-mode:multiply">
<path d="M445.08 429.68C395.403 409.621 493.873 388.7 494 373.469C494.126 355.594 446.976 359.502 405.262 349.502C378.338 343.007 405.641 327.201 411.077 317.948C423.591 296.509 414.364 270.645 369.236 258.69C299.839 240.298 191.509 255.989 177.478 294.095C175.202 300.303 173.306 306.05 173.306 312.315C173.306 317.43 177.098 330.822 162.814 333.466C151.817 335.478 95.1869 314.154 54.8632 318.407C0.129144 324.155 -28.9444 357.318 41.8433 384.389C79.8917 398.931 20.4806 415.426 39.6944 440.658C52.9671 457.958 81.2822 457.038 135.005 458.82C197.703 460.889 320.949 463.131 383.52 457.096C395.782 455.889 492.483 448.762 445.08 429.68Z" fill="#CBE3E0"/>
</g>
<path d="M103.248 129.065C97.5612 129.065 93.0117 124.523 93.0117 118.846V65.3525C93.0117 59.6752 97.5612 55.1333 103.248 55.1333H237.964C243.651 55.1333 248.2 59.6752 248.2 65.3525V118.846C248.2 124.523 243.651 129.065 237.964 129.065H103.248Z" fill="white"/>
<path d="M237.964 56.3949C242.893 56.3949 246.937 60.4321 246.937 65.3525V118.846C246.937 123.766 242.893 127.803 237.964 127.803H103.248C98.3195 127.803 94.2755 123.766 94.2755 118.846V65.3525C94.2755 60.4321 98.3195 56.3949 103.248 56.3949H237.964ZM237.964 53.8716H103.248C96.9294 53.8716 91.748 59.0443 91.748 65.3525V118.846C91.748 125.154 96.9294 130.326 103.248 130.326H237.964C244.283 130.326 249.464 125.154 249.464 118.846V65.3525C249.464 59.0443 244.283 53.8716 237.964 53.8716Z" fill="#258A7C"/>
<path d="M225.074 85.0339H116.139V89.4496H225.074V85.0339Z" fill="#CBE3E0"/>
<path d="M225.074 96.8932H116.139V101.309H225.074V96.8932Z" fill="#CBE3E0"/>
<path d="M225.074 108.753H116.139V113.168H225.074V108.753Z" fill="#CBE3E0"/>
<path d="M246.936 71.4083V65.3525C246.936 60.4321 242.892 56.3949 237.964 56.3949H103.248C98.3194 56.3949 94.2754 60.4321 94.2754 65.3525V71.4083H246.936Z" fill="#258A7C"/>
<path d="M111.083 63.8385C111.083 65.9833 109.314 67.7496 107.166 67.7496C105.017 67.7496 103.248 65.9833 103.248 63.8385C103.248 61.6938 105.017 59.9275 107.166 59.9275C109.314 59.9275 111.083 61.6938 111.083 63.8385Z" fill="#FF0000"/>
<path d="M126.501 63.8385C126.501 65.9833 124.732 67.7496 122.584 67.7496C120.435 67.7496 118.666 65.9833 118.666 63.8385C118.666 61.6938 120.435 59.9275 122.584 59.9275C124.858 59.9275 126.501 61.6938 126.501 63.8385Z" fill="#FBDA4C"/>
<path d="M141.919 63.8385C141.919 65.9833 140.15 67.7496 138.002 67.7496C135.853 67.7496 134.084 65.9833 134.084 63.8385C134.084 61.6938 135.853 59.9275 138.002 59.9275C140.276 59.9275 141.919 61.6938 141.919 63.8385Z" fill="#49F04F"/>
<path d="M124.858 338.117C118.918 338.117 114.116 333.323 114.116 327.393V130.327C114.116 124.397 118.918 119.603 124.858 119.603H429.043C434.982 119.603 439.785 124.397 439.785 130.327V327.393C439.785 333.323 434.982 338.117 429.043 338.117H124.858Z" fill="white"/>
<path d="M429.043 120.864C434.351 120.864 438.521 125.154 438.521 130.326V327.393C438.521 332.692 434.224 336.856 429.043 336.856H124.858C119.55 336.856 115.38 332.566 115.38 327.393V130.326C115.38 125.028 119.677 120.864 124.858 120.864H429.043ZM429.043 118.341H124.858C118.16 118.341 112.853 123.766 112.853 130.326V327.393C112.853 334.08 118.287 339.379 124.858 339.379H429.043C435.741 339.379 441.049 333.954 441.049 327.393V130.326C441.175 123.766 435.741 118.341 429.043 118.341Z" fill="#258A7C"/>
<path d="M438.647 140.42V130.326C438.647 125.028 434.35 120.864 429.169 120.864H124.858C119.55 120.864 115.38 125.154 115.38 130.326V140.42H438.647Z" fill="#258A7C"/>
<path d="M127.638 134.616C129.802 134.616 131.556 132.865 131.556 130.705C131.556 128.545 129.802 126.794 127.638 126.794C125.475 126.794 123.721 128.545 123.721 130.705C123.721 132.865 125.475 134.616 127.638 134.616Z" fill="#FF0000"/>
<path d="M143.056 134.616C145.22 134.616 146.974 132.865 146.974 130.705C146.974 128.545 145.22 126.794 143.056 126.794C140.893 126.794 139.139 128.545 139.139 130.705C139.139 132.865 140.893 134.616 143.056 134.616Z" fill="#FBDA4C"/>
<path d="M158.474 134.616C160.638 134.616 162.392 132.865 162.392 130.705C162.392 128.545 160.638 126.794 158.474 126.794C156.311 126.794 154.557 128.545 154.557 130.705C154.557 132.865 156.311 134.616 158.474 134.616Z" fill="#49F04F"/>
<path d="M280.299 310.992L208.265 324.87L141.792 313.768V155.307L205.106 166.283L280.299 152.531L352.712 166.283L418.806 155.181V313.768L353.091 324.87L280.299 310.992Z" fill="#8CC8FF"/>
<path d="M214.963 240.593C216.1 240.215 217.238 239.962 218.375 239.584V184.198L205.358 186.595L162.012 179.025V253.336C179.704 250.181 197.397 245.513 214.963 240.593Z" fill="white"/>
<path d="M208.897 258.887C193.353 263.05 177.683 266.835 161.886 269.484V296.736L208.013 304.432L218.249 302.413V256.111C215.216 257.12 212.057 258.004 208.897 258.887Z" fill="white"/>
<path d="M292.81 240.215C284.975 237.439 280.426 237.565 272.464 240.467C265.893 242.864 259.068 244.504 252.244 246.523C246.304 248.289 240.238 250.055 234.299 251.695V299.511L280.299 290.68L322.382 298.628V250.308C312.525 247.027 302.541 243.747 292.81 240.215Z" fill="white"/>
<path d="M257.551 228.355C270.821 224.696 280.425 219.524 294.2 223.813C303.678 226.715 313.03 229.743 322.508 232.771V180.918L280.299 172.843L234.425 181.296V235.042C242.007 232.771 249.716 230.5 257.551 228.355Z" fill="white"/>
<path d="M338.432 255.733V301.782L353.344 304.558L398.839 296.862V274.657C378.619 268.475 358.399 262.293 338.432 255.733Z" fill="white"/>
<path d="M398.713 257.12V178.899L352.46 186.721L338.306 184.072V237.944C358.526 244.252 378.619 250.686 398.713 257.12Z" fill="white"/>
<path d="M394.921 107.239C372.047 107.239 353.47 125.785 353.47 148.62C353.47 159.596 359.662 170.699 365.728 178.016L389.613 208.295C392.393 211.702 397.575 211.702 400.355 208.295L424.24 178.016C434.982 165.148 436.498 154.297 436.498 148.62C436.372 125.785 417.795 107.239 394.921 107.239ZM394.921 165.148C384.684 165.148 376.47 156.947 376.47 146.728C376.47 136.508 384.684 128.308 394.921 128.308C405.157 128.308 413.371 136.508 413.371 146.728C413.371 156.947 405.157 165.148 394.921 165.148Z" fill="#FF3B5A"/>
<path d="M294.327 422.142C288.64 422.142 284.091 417.6 284.091 411.923V358.429C284.091 352.752 288.64 348.21 294.327 348.21H429.043C434.73 348.21 439.279 352.752 439.279 358.429V411.923C439.279 417.6 434.73 422.142 429.043 422.142H294.327Z" fill="white"/>
<path d="M429.043 349.472C433.972 349.472 438.016 353.509 438.016 358.429V411.923C438.016 416.843 433.972 420.88 429.043 420.88H294.327C289.399 420.88 285.355 416.843 285.355 411.923V358.429C285.355 353.509 289.399 349.472 294.327 349.472H429.043ZM429.043 346.949H294.327C288.009 346.949 282.827 352.121 282.827 358.429V411.923C282.827 418.231 288.009 423.403 294.327 423.403H429.043C435.362 423.403 440.543 418.231 440.543 411.923V358.429C440.543 351.995 435.362 346.949 429.043 346.949Z" fill="#258A7C"/>
<path d="M416.153 378.111H307.218V382.527H416.153V378.111Z" fill="#CBE3E0"/>
<path d="M416.153 389.97H307.218V394.386H416.153V389.97Z" fill="#CBE3E0"/>
<path d="M416.153 401.83H307.218V406.245H416.153V401.83Z" fill="#CBE3E0"/>
<path d="M438.016 364.359V358.303C438.016 353.383 433.972 349.346 429.043 349.346H294.327C289.398 349.346 285.354 353.383 285.354 358.303V364.359H438.016Z" fill="#258A7C"/>
<path d="M298.245 360.826C300.408 360.826 302.162 359.075 302.162 356.915C302.162 354.755 300.408 353.004 298.245 353.004C296.081 353.004 294.327 354.755 294.327 356.915C294.327 359.075 296.081 360.826 298.245 360.826Z" fill="#FF0000"/>
<path d="M313.789 360.826C315.952 360.826 317.706 359.075 317.706 356.915C317.706 354.755 315.952 353.004 313.789 353.004C311.625 353.004 309.871 354.755 309.871 356.915C309.871 359.075 311.625 360.826 313.789 360.826Z" fill="#FBDA4C"/>
<path d="M329.207 360.826C331.37 360.826 333.124 359.075 333.124 356.915C333.124 354.755 331.37 353.004 329.207 353.004C327.043 353.004 325.289 354.755 325.289 356.915C325.289 359.075 327.043 360.826 329.207 360.826Z" fill="#49F04F"/>
<path d="M153.798 433.496C148.111 433.496 143.562 428.955 143.562 423.277V358.429C143.562 352.752 148.111 348.21 153.798 348.21H244.156C249.843 348.21 254.392 352.752 254.392 358.429V423.277C254.392 428.955 249.843 433.496 244.156 433.496H153.798Z" fill="white"/>
<path d="M244.156 349.472C249.085 349.472 253.129 353.509 253.129 358.429V423.277C253.129 428.198 249.085 432.235 244.156 432.235H153.798C148.869 432.235 144.825 428.198 144.825 423.277V358.429C144.825 353.509 148.869 349.472 153.798 349.472H244.156ZM244.156 346.949H153.798C147.479 346.949 142.298 352.121 142.298 358.429V423.277C142.298 429.585 147.479 434.758 153.798 434.758H244.156C250.475 434.758 255.656 429.585 255.656 423.277V358.429C255.656 351.995 250.475 346.949 244.156 346.949Z" fill="#258A7C"/>
<path d="M253.129 364.359V358.303C253.129 353.383 249.085 349.346 244.156 349.346H153.798C148.869 349.346 144.825 353.383 144.825 358.303V364.359H253.129Z" fill="#258A7C"/>
<path d="M157.842 360.826C160.006 360.826 161.76 359.075 161.76 356.915C161.76 354.755 160.006 353.004 157.842 353.004C155.679 353.004 153.925 354.755 153.925 356.915C153.925 359.075 155.679 360.826 157.842 360.826Z" fill="#FF0000"/>
<path d="M173.26 360.826C175.424 360.826 177.178 359.075 177.178 356.915C177.178 354.755 175.424 353.004 173.26 353.004C171.097 353.004 169.343 354.755 169.343 356.915C169.343 359.075 171.097 360.826 173.26 360.826Z" fill="#FBDA4C"/>
<path d="M188.678 360.826C190.842 360.826 192.596 359.075 192.596 356.915C192.596 354.755 190.842 353.004 188.678 353.004C186.515 353.004 184.761 354.755 184.761 356.915C184.761 359.075 186.515 360.826 188.678 360.826Z" fill="#49F04F"/>
<path d="M223.178 427.819H174.397V396.152L199.041 372.938L223.178 396.152V427.819Z" fill="#CBE3E0"/>
<path d="M204.222 406.245H193.228V427.819H204.222V406.245Z" fill="white"/>
<path d="M228.865 399.054L199.041 369.153L169.09 399.054L171.87 401.703L199.041 374.578L226.085 401.703L228.865 399.054Z" fill="#CBE3E0"/>
<path d="M189.815 401.703H178.82V412.68H189.815V401.703Z" fill="white"/>
<path d="M184.886 401.325H183.496V413.184H184.886V401.325Z" fill="#CBE3E0"/>
<path d="M190.078 407.977V406.589H178.199V407.977H190.078Z" fill="#CBE3E0"/>
<path d="M219.513 401.703H208.519V412.68H219.513V401.703Z" fill="white"/>
<path d="M214.584 401.325H213.194V413.184H214.584V401.325Z" fill="#CBE3E0"/>
<path d="M219.776 407.977V406.589H207.897V407.977H219.776Z" fill="#CBE3E0"/>
<path d="M198.789 397.792C201.441 397.792 203.591 395.646 203.591 392.998C203.591 390.35 201.441 388.204 198.789 388.204C196.136 388.204 193.986 390.35 193.986 392.998C193.986 395.646 196.136 397.792 198.789 397.792Z" fill="white"/>
<path d="M199.42 387.699H198.03V398.045H199.42V387.699Z" fill="#CBE3E0"/>
<path d="M203.967 393.491V392.104H193.604V393.491H203.967Z" fill="#CBE3E0"/>
<path d="M144.194 380.129C140.782 380.634 137.37 379.877 134.463 378.237C127.134 373.947 124.606 364.485 128.776 357.168C129.029 356.663 129.408 356.159 129.661 355.78L220.777 232.14C221.915 230.626 223.558 229.617 225.58 229.365C227.349 229.112 229.245 229.617 230.635 230.626C233.541 232.771 234.3 236.682 232.53 239.836L155.568 372.686C153.04 376.723 148.996 379.499 144.194 380.129Z" fill="#5C92DE"/>
<path d="M170.101 300.899L129.661 355.654C129.282 356.158 129.029 356.663 128.776 357.042C124.479 364.359 127.007 373.948 134.463 378.111C137.496 379.877 140.782 380.508 144.194 380.003C148.996 379.373 153.166 376.597 155.568 372.434L188.804 315.029C182.612 310.361 176.293 305.567 170.101 300.899Z" fill="#32679C"/>
<path opacity="0.33" d="M279.251 246.035C325.46 243.552 360.905 204.143 358.418 158.011C355.932 111.879 316.456 76.4941 270.246 78.9765C224.037 81.4589 188.593 120.869 191.08 167C193.566 213.132 233.042 248.517 279.251 246.035Z" fill="#D1E9FF"/>
<path opacity="0.33" d="M357.641 174.736C358.778 167.04 358.778 159.218 357.767 151.522C307.47 171.834 257.678 194.165 206.117 210.819C209.15 215.108 212.562 219.145 216.354 222.804C264.376 209.431 311.388 193.03 357.641 174.736Z" fill="white"/>
<path opacity="0.33" d="M197.145 194.291C221.535 186.721 245.673 178.395 269.558 169.563C297.613 159.092 325.416 145.214 354.608 137.265C350.943 125.785 344.877 115.187 336.537 105.977C311.262 115.944 286.618 127.551 261.596 138.275C238.343 148.242 214.711 157.199 190.826 165.778C191.332 175.493 193.48 185.207 197.145 194.291Z" fill="white"/>
<path opacity="0.45" d="M288.134 116.953C283.585 123.892 274.107 125.911 267.156 121.369C260.206 116.827 258.184 107.365 262.733 100.426C267.283 93.4869 276.761 91.4683 283.711 96.0101C290.788 100.678 292.684 110.014 288.134 116.953Z" fill="white"/>
<path d="M287.25 257.373C264.502 260.401 241.502 255.102 222.293 242.612C178.062 213.72 165.677 154.298 194.617 110.267C209.908 86.9264 234.552 71.5345 262.228 67.8758C284.975 64.8479 307.975 70.1467 327.184 82.6369C348.542 96.641 363.201 118.089 368.509 143.069C373.691 168.049 368.888 193.66 354.861 214.982C339.569 238.196 314.926 253.714 287.25 257.373ZM264.123 82.1322C240.618 85.2863 219.766 98.4072 206.749 118.089C182.232 155.559 192.721 205.898 230.255 230.374C246.557 240.972 266.145 245.513 285.354 242.864C308.86 239.71 329.712 226.589 342.729 206.908C354.608 188.74 358.652 167.166 354.229 145.971C349.806 124.775 337.294 106.608 319.223 94.7485C302.92 84.0247 283.332 79.6089 264.123 82.1322Z" fill="#5C92DE"/>
<path d="M320.613 92.4776C281.816 67.1188 229.876 77.9688 204.601 116.701C179.2 155.433 190.068 207.286 228.865 232.519C267.662 257.751 319.602 247.027 344.877 208.295C370.279 169.689 359.41 117.836 320.613 92.4776ZM342.729 206.908C329.712 226.715 308.86 239.836 285.355 242.864C266.146 245.387 246.558 240.972 230.255 230.374C192.848 205.898 182.233 155.559 206.749 118.089C219.766 98.4073 240.618 85.2863 264.124 82.1322C283.333 79.609 302.921 84.0247 319.223 94.6224C337.421 106.482 349.806 124.649 354.229 145.845C358.652 167.166 354.608 188.866 342.729 206.908Z" fill="#3C7DBD"/>
</svg>
